<?xml version="1.0" standalone="no"?>
<!DOCTYPE svg PUBLIC "-//W3C//DTD SVG 20010904//EN"
 "http://www.w3.org/TR/2001/REC-SVG-20010904/DTD/svg10.dtd">
<svg version="1.0" xmlns="http://www.w3.org/2000/svg"
 width="957.000000pt" height="957.000000pt" viewBox="0 0 957.000000 957.000000"
 preserveAspectRatio="xMidYMid meet">
<metadata>
Created by potrace 1.11, written by Peter Selinger 2001-2013
</metadata>
<g transform="translate(0.000000,957.000000) scale(0.100000,-0.100000)"
fill="#000000" stroke="none">
<path d="M732 9430 c-230 -60 -416 -252 -466 -482 -15 -67 -16 -430 -14 -4173
l3 -4100 23 -65 c72 -201 222 -352 416 -418 l81 -27 620 0 c670 0 669 0 790
55 177 80 306 238 355 435 20 78 20 107 18 1111 l-3 1031 -92 -221 c-51 -122
-136 -324 -189 -451 -53 -126 -127 -303 -165 -393 -37 -90 -79 -182 -93 -205
-114 -196 -357 -303 -571 -253 -281 67 -464 305 -441 573 9 103 -1 75 359 933
35 85 94 225 130 310 36 85 150 360 255 610 104 250 231 554 282 675 51 121
121 288 155 370 35 83 118 281 185 440 67 160 136 326 153 369 l31 79 36 -44
c116 -144 237 -243 384 -314 193 -93 394 -127 591 -100 62 8 135 22 162 30 26
8 54 15 61 15 9 0 12 -423 12 -2082 0 -1789 2 -2093 15 -2153 45 -214 217
-394 432 -449 89 -23 1169 -24 1257 -1 206 54 367 214 425 425 21 74 21 84 21
1927 0 1019 3 1853 6 1853 4 0 37 -29 75 -64 284 -269 705 -371 1064 -259 111
35 247 104 332 169 71 55 187 171 219 219 21 32 30 32 42 -2 12 -33 104 -254
232 -558 116 -276 188 -447 333 -795 63 -151 178 -426 255 -610 77 -184 172
-411 211 -505 40 -93 111 -264 159 -379 l87 -209 3 2934 c2 2131 0 2950 -8
2994 -35 186 -182 353 -361 410 l-80 25 -502 0 c-541 0 -562 -2 -665 -54 -120
-61 -229 -189 -274 -324 -22 -66 -23 -78 -26 -595 -3 -492 -4 -528 -20 -523
-308 95 -667 35 -927 -153 -38 -28 -89 -67 -113 -87 l-42 -37 0 1059 c0 1184
3 1122 -72 1267 -59 113 -142 194 -261 252 -63 30 -115 48 -163 56 -46 6 -266
9 -620 6 -607 -4 -589 -2 -720 -71 -113 -59 -199 -150 -254 -267 -57 -123 -60
-154 -60 -711 0 -280 -3 -508 -7 -508 -5 0 -43 7 -86 15 -101 19 -293 19 -394
0 -274 -52 -535 -213 -698 -429 l-50 -67 -5 998 -5 998 -22 65 c-73 213 -247
376 -459 430 -73 19 -112 20 -673 19 -553 0 -601 -1 -669 -19z"/>
<path d="M7052 2580 c3 -894 3 -895 25 -960 66 -191 203 -323 389 -370 66 -17
110 -20 301 -20 122 0 223 3 223 8 0 7 -28 76 -153 372 -36 85 -129 308 -207
495 -78 187 -204 489 -280 670 -76 182 -171 409 -211 505 -40 96 -76 179 -81
185 -5 6 -7 -371 -6 -885z"/>
</g>
</svg>
